<svg version="1.0" xmlns="http://www.w3.org/2000/svg" width="346.667" height="346.667" viewBox="0 0 260 260"><path d="M64.9 17.4c-.2.2-2.2.6-4.4.9-25.3 3.6-43.7 21.5-50.9 49.4-1.7 6.3-2.1 9-3.5 19.8-1.1 7.7-.7 74.6.4 81 2.4 14.2 8.2 29.8 14.4 38.9 10 14.4 27.3 25 45.4 27.5 6.4.9 26.3.7 30.7-.3 1.4-.4 3.6-.8 5-1.1 5-.9 14.4-4.6 20.6-8 6.3-3.6 19-15.1 20.2-18.6.9-2.2.8-78.6 0-79.5-.7-.6-63.7-.6-64.7 0-.5.3-.6 15.5-.2 21.3.1.8 4.7 1.1 16.4 1.1 8.9 0 17.6.1 19.3.1l3.1.1-.1 24.6-.1 24.6-3.5 3c-8.1 6.9-18.8 10.4-31.7 10.5-14.6.2-23.8-3.2-32.4-11.8-7.4-7.5-11.5-16.4-15.5-34.4-1-4.7-1.3-71.1-.3-79.5 2.7-22.4 9.3-35.2 21.6-41.8 7.4-3.9 9.7-4.4 21.3-4.7 15.7-.4 25.1 3.9 32.1 14.7 4.1 6.5 6.6 13.3 7.6 20.8.3 2.5.9 4.9 1.4 5.4.7.7 11.8 1.1 24 .7l2.6-.1-.9-6.8c-2.4-18.1-7.9-30.3-18.3-40.7C112.5 22.4 97.9 17 77 17c-6.4 0-11.9.2-12.1.4zm84 2.1c-.1 0-.2 48-.3 106.7l-.1 106.8H259v-23l-41.7-.2-41.8-.3V20l-3-.1c-2.1-.1-21.9-.4-23.6-.4z"/></svg>